<mxfile host="65bd71144e">
    <diagram id="YYqOi4Klwlf-4dC_CEkq" name="Page-2">
        <mxGraphModel dx="822" dy="424" grid="0" gridSize="10" guides="1" tooltips="1" connect="1" arrows="1" fold="1" page="1" pageScale="1" pageWidth="827" pageHeight="1169" background="none" math="0" shadow="0">
            <root>
                <mxCell id="2ExhwNMivMS8VfAEn1K8-0"/>
                <mxCell id="2ExhwNMivMS8VfAEn1K8-1" parent="2ExhwNMivMS8VfAEn1K8-0"/>
                <mxCell id="JN8HyGpcUDX5lB4dWKyv-2" style="edgeStyle=none;html=1;exitX=1;exitY=0.5;exitDx=0;exitDy=0;entryX=0;entryY=0.5;entryDx=0;entryDy=0;" parent="2ExhwNMivMS8VfAEn1K8-1" source="T4moZk6ohesaiyXRU3Vr-0" target="JN8HyGpcUDX5lB4dWKyv-0" edge="1">
                    <mxGeometry relative="1" as="geometry"/>
                </mxCell>
                <mxCell id="JN8HyGpcUDX5lB4dWKyv-3" style="edgeStyle=none;html=1;exitX=1;exitY=0.5;exitDx=0;exitDy=0;entryX=0;entryY=0.5;entryDx=0;entryDy=0;" parent="2ExhwNMivMS8VfAEn1K8-1" source="T4moZk6ohesaiyXRU3Vr-0" target="JN8HyGpcUDX5lB4dWKyv-1" edge="1">
                    <mxGeometry relative="1" as="geometry"/>
                </mxCell>
                <mxCell id="T4moZk6ohesaiyXRU3Vr-0" value="web开发" style="rounded=0;whiteSpace=wrap;html=1;" parent="2ExhwNMivMS8VfAEn1K8-1" vertex="1">
                    <mxGeometry x="151" y="275" width="120" height="60" as="geometry"/>
                </mxCell>
                <mxCell id="JN8HyGpcUDX5lB4dWKyv-8" style="edgeStyle=none;html=1;exitX=1;exitY=0.5;exitDx=0;exitDy=0;entryX=0;entryY=0.5;entryDx=0;entryDy=0;" parent="2ExhwNMivMS8VfAEn1K8-1" source="JN8HyGpcUDX5lB4dWKyv-0" target="JN8HyGpcUDX5lB4dWKyv-4" edge="1">
                    <mxGeometry relative="1" as="geometry"/>
                </mxCell>
                <mxCell id="JN8HyGpcUDX5lB4dWKyv-9" style="edgeStyle=none;html=1;exitX=1;exitY=0.5;exitDx=0;exitDy=0;entryX=0;entryY=0.617;entryDx=0;entryDy=0;entryPerimeter=0;" parent="2ExhwNMivMS8VfAEn1K8-1" source="JN8HyGpcUDX5lB4dWKyv-0" target="JN8HyGpcUDX5lB4dWKyv-5" edge="1">
                    <mxGeometry relative="1" as="geometry"/>
                </mxCell>
                <mxCell id="JN8HyGpcUDX5lB4dWKyv-0" value="客户界面" style="rounded=0;whiteSpace=wrap;html=1;" parent="2ExhwNMivMS8VfAEn1K8-1" vertex="1">
                    <mxGeometry x="308" y="203" width="120" height="59" as="geometry"/>
                </mxCell>
                <mxCell id="JN8HyGpcUDX5lB4dWKyv-10" style="edgeStyle=none;html=1;exitX=1;exitY=0.5;exitDx=0;exitDy=0;entryX=0;entryY=0.5;entryDx=0;entryDy=0;" parent="2ExhwNMivMS8VfAEn1K8-1" source="JN8HyGpcUDX5lB4dWKyv-1" target="JN8HyGpcUDX5lB4dWKyv-6" edge="1">
                    <mxGeometry relative="1" as="geometry"/>
                </mxCell>
                <mxCell id="JN8HyGpcUDX5lB4dWKyv-11" style="edgeStyle=none;html=1;exitX=1;exitY=0.5;exitDx=0;exitDy=0;entryX=0;entryY=0.5;entryDx=0;entryDy=0;" parent="2ExhwNMivMS8VfAEn1K8-1" source="JN8HyGpcUDX5lB4dWKyv-1" target="JN8HyGpcUDX5lB4dWKyv-7" edge="1">
                    <mxGeometry relative="1" as="geometry"/>
                </mxCell>
                <mxCell id="JN8HyGpcUDX5lB4dWKyv-1" value="管理员界面" style="rounded=0;whiteSpace=wrap;html=1;" parent="2ExhwNMivMS8VfAEn1K8-1" vertex="1">
                    <mxGeometry x="308" y="355" width="120" height="60" as="geometry"/>
                </mxCell>
                <mxCell id="JN8HyGpcUDX5lB4dWKyv-4" value="前端开发" style="rounded=0;whiteSpace=wrap;html=1;" parent="2ExhwNMivMS8VfAEn1K8-1" vertex="1">
                    <mxGeometry x="456" y="156" width="120" height="60" as="geometry"/>
                </mxCell>
                <mxCell id="JN8HyGpcUDX5lB4dWKyv-5" value="后端开发" style="rounded=0;whiteSpace=wrap;html=1;" parent="2ExhwNMivMS8VfAEn1K8-1" vertex="1">
                    <mxGeometry x="456" y="242" width="120" height="60" as="geometry"/>
                </mxCell>
                <mxCell id="JN8HyGpcUDX5lB4dWKyv-6" value="前端开发" style="rounded=0;whiteSpace=wrap;html=1;" parent="2ExhwNMivMS8VfAEn1K8-1" vertex="1">
                    <mxGeometry x="455" y="318" width="120" height="60" as="geometry"/>
                </mxCell>
                <mxCell id="JN8HyGpcUDX5lB4dWKyv-7" value="后端开发" style="rounded=0;whiteSpace=wrap;html=1;" parent="2ExhwNMivMS8VfAEn1K8-1" vertex="1">
                    <mxGeometry x="455" y="404" width="120" height="60" as="geometry"/>
                </mxCell>
                <mxCell id="JN8HyGpcUDX5lB4dWKyv-15" value="" style="endArrow=classic;startArrow=classic;html=1;entryX=0.5;entryY=1;entryDx=0;entryDy=0;exitX=0.5;exitY=0;exitDx=0;exitDy=0;" parent="2ExhwNMivMS8VfAEn1K8-1" source="JN8HyGpcUDX5lB4dWKyv-1" target="JN8HyGpcUDX5lB4dWKyv-0" edge="1">
                    <mxGeometry width="50" height="50" relative="1" as="geometry">
                        <mxPoint x="366" y="350" as="sourcePoint"/>
                        <mxPoint x="353" y="283" as="targetPoint"/>
                    </mxGeometry>
                </mxCell>
                <mxCell id="JN8HyGpcUDX5lB4dWKyv-16" value="数据库&lt;br&gt;交互" style="text;html=1;strokeColor=none;fillColor=none;align=center;verticalAlign=middle;whiteSpace=wrap;rounded=0;" parent="2ExhwNMivMS8VfAEn1K8-1" vertex="1">
                    <mxGeometry x="366" y="284" width="60" height="30" as="geometry"/>
                </mxCell>
                <mxCell id="JN8HyGpcUDX5lB4dWKyv-17" value="nginx" style="text;html=1;strokeColor=none;fillColor=none;align=center;verticalAlign=middle;whiteSpace=wrap;rounded=0;" parent="2ExhwNMivMS8VfAEn1K8-1" vertex="1">
                    <mxGeometry x="511" y="214" width="60" height="30" as="geometry"/>
                </mxCell>
                <mxCell id="JN8HyGpcUDX5lB4dWKyv-18" value="" style="endArrow=classic;startArrow=classic;html=1;entryX=0.5;entryY=1;entryDx=0;entryDy=0;exitX=0.5;exitY=0;exitDx=0;exitDy=0;" parent="2ExhwNMivMS8VfAEn1K8-1" source="JN8HyGpcUDX5lB4dWKyv-5" target="JN8HyGpcUDX5lB4dWKyv-4" edge="1">
                    <mxGeometry width="50" height="50" relative="1" as="geometry">
                        <mxPoint x="376" y="360" as="sourcePoint"/>
                        <mxPoint x="376" y="272" as="targetPoint"/>
                    </mxGeometry>
                </mxCell>
                <mxCell id="JN8HyGpcUDX5lB4dWKyv-19" value="nginx" style="text;html=1;strokeColor=none;fillColor=none;align=center;verticalAlign=middle;whiteSpace=wrap;rounded=0;" parent="2ExhwNMivMS8VfAEn1K8-1" vertex="1">
                    <mxGeometry x="517" y="377" width="60" height="30" as="geometry"/>
                </mxCell>
                <mxCell id="JN8HyGpcUDX5lB4dWKyv-21" value="" style="endArrow=classic;startArrow=classic;html=1;entryX=0;entryY=0;entryDx=0;entryDy=0;exitX=0;exitY=1;exitDx=0;exitDy=0;" parent="2ExhwNMivMS8VfAEn1K8-1" source="JN8HyGpcUDX5lB4dWKyv-19" target="JN8HyGpcUDX5lB4dWKyv-19" edge="1">
                    <mxGeometry width="50" height="50" relative="1" as="geometry">
                        <mxPoint x="376" y="360" as="sourcePoint"/>
                        <mxPoint x="376" y="272" as="targetPoint"/>
                    </mxGeometry>
                </mxCell>
                <mxCell id="JN8HyGpcUDX5lB4dWKyv-22" value="&lt;div style=&quot;text-align: left&quot;&gt;&lt;span&gt;&lt;font style=&quot;font-size: 14px&quot;&gt;1.面向toC，一般要拆分客户端和管理员&lt;/font&gt;&lt;/span&gt;&lt;/div&gt;&lt;div style=&quot;text-align: left&quot;&gt;&lt;span&gt;&lt;font style=&quot;font-size: 14px&quot;&gt;2.toB，用户分配不同权限，浏览和操作不同内容&lt;/font&gt;&lt;/span&gt;&lt;/div&gt;&lt;div style=&quot;text-align: left&quot;&gt;&lt;span&gt;&lt;font style=&quot;font-size: 14px&quot;&gt;3.前后端开发分离有利于提高开发效率以及定位问题&lt;/font&gt;&lt;/span&gt;&lt;/div&gt;" style="text;html=1;strokeColor=none;fillColor=none;align=center;verticalAlign=middle;whiteSpace=wrap;rounded=0;" parent="2ExhwNMivMS8VfAEn1K8-1" vertex="1">
                    <mxGeometry x="148" y="426" width="259" height="99" as="geometry"/>
                </mxCell>
                <mxCell id="0" value="" style="endArrow=classic;html=1;startArrow=none;" edge="1" parent="2ExhwNMivMS8VfAEn1K8-1">
                    <mxGeometry width="50" height="50" relative="1" as="geometry">
                        <mxPoint x="565.9998242239049" y="772.9437510986006" as="sourcePoint"/>
                        <mxPoint x="684" y="772" as="targetPoint"/>
                    </mxGeometry>
                </mxCell>
                <mxCell id="1" value="html\js\css相继诞生，不分前后端，页面由JSP、PHP在后端生成，浏览器展示" style="text;html=1;strokeColor=default;fillColor=none;align=left;verticalAlign=middle;whiteSpace=wrap;rounded=0;" vertex="1" parent="2ExhwNMivMS8VfAEn1K8-1">
                    <mxGeometry x="19.5" y="802" width="111" height="72" as="geometry"/>
                </mxCell>
                <mxCell id="3" value="1994" style="text;html=1;strokeColor=none;fillColor=none;align=center;verticalAlign=middle;whiteSpace=wrap;rounded=0;" vertex="1" parent="2ExhwNMivMS8VfAEn1K8-1">
                    <mxGeometry x="45" y="780" width="60" height="30" as="geometry"/>
                </mxCell>
                <mxCell id="4" value="1996" style="text;html=1;strokeColor=none;fillColor=none;align=center;verticalAlign=middle;whiteSpace=wrap;rounded=0;" vertex="1" parent="2ExhwNMivMS8VfAEn1K8-1">
                    <mxGeometry x="148" y="738" width="60" height="30" as="geometry"/>
                </mxCell>
                <mxCell id="5" value="" style="ellipse;whiteSpace=wrap;html=1;aspect=fixed;" vertex="1" parent="2ExhwNMivMS8VfAEn1K8-1">
                    <mxGeometry x="169" y="764" width="18" height="18" as="geometry"/>
                </mxCell>
                <mxCell id="6" value="" style="endArrow=none;html=1;startArrow=none;" edge="1" parent="2ExhwNMivMS8VfAEn1K8-1" source="7" target="5">
                    <mxGeometry width="50" height="50" relative="1" as="geometry">
                        <mxPoint x="52" y="772" as="sourcePoint"/>
                        <mxPoint x="718" y="772" as="targetPoint"/>
                    </mxGeometry>
                </mxCell>
                <mxCell id="7" value="" style="ellipse;whiteSpace=wrap;html=1;aspect=fixed;" vertex="1" parent="2ExhwNMivMS8VfAEn1K8-1">
                    <mxGeometry x="66" y="764" width="18" height="18" as="geometry"/>
                </mxCell>
                <mxCell id="8" value="" style="endArrow=none;html=1;" edge="1" parent="2ExhwNMivMS8VfAEn1K8-1" target="7">
                    <mxGeometry width="50" height="50" relative="1" as="geometry">
                        <mxPoint x="38" y="772" as="sourcePoint"/>
                        <mxPoint x="169.00028343331928" y="772.9285736780423" as="targetPoint"/>
                        <Array as="points"/>
                    </mxGeometry>
                </mxCell>
                <mxCell id="2" value="" style="ellipse;whiteSpace=wrap;html=1;aspect=fixed;" vertex="1" parent="2ExhwNMivMS8VfAEn1K8-1">
                    <mxGeometry x="256" y="764" width="18" height="18" as="geometry"/>
                </mxCell>
                <mxCell id="9" value="" style="endArrow=none;html=1;startArrow=none;" edge="1" parent="2ExhwNMivMS8VfAEn1K8-1" source="5" target="2">
                    <mxGeometry width="50" height="50" relative="1" as="geometry">
                        <mxPoint x="186.99998456794287" y="772.9833333619113" as="sourcePoint"/>
                        <mxPoint x="718" y="772" as="targetPoint"/>
                    </mxGeometry>
                </mxCell>
                <mxCell id="10" value="后端为主的MVC，前端写demo，后端套用" style="text;html=1;strokeColor=default;fillColor=none;align=left;verticalAlign=middle;whiteSpace=wrap;rounded=0;" vertex="1" parent="2ExhwNMivMS8VfAEn1K8-1">
                    <mxGeometry x="122.5" y="697" width="111" height="49" as="geometry"/>
                </mxCell>
                <mxCell id="11" value="2004" style="text;html=1;strokeColor=none;fillColor=none;align=center;verticalAlign=middle;whiteSpace=wrap;rounded=0;" vertex="1" parent="2ExhwNMivMS8VfAEn1K8-1">
                    <mxGeometry x="233.5" y="778" width="60" height="30" as="geometry"/>
                </mxCell>
                <mxCell id="12" value="Ajax王者归来，前后端分离，使用ajax做接口" style="text;html=1;strokeColor=default;fillColor=none;align=left;verticalAlign=middle;whiteSpace=wrap;rounded=0;" vertex="1" parent="2ExhwNMivMS8VfAEn1K8-1">
                    <mxGeometry x="209.5" y="802" width="111" height="44" as="geometry"/>
                </mxCell>
                <mxCell id="13" value="" style="ellipse;whiteSpace=wrap;html=1;aspect=fixed;" vertex="1" parent="2ExhwNMivMS8VfAEn1K8-1">
                    <mxGeometry x="356" y="764" width="18" height="18" as="geometry"/>
                </mxCell>
                <mxCell id="14" value="" style="endArrow=none;html=1;startArrow=none;" edge="1" parent="2ExhwNMivMS8VfAEn1K8-1" source="2" target="13">
                    <mxGeometry width="50" height="50" relative="1" as="geometry">
                        <mxPoint x="273.99997807122736" y="772.9801324987391" as="sourcePoint"/>
                        <mxPoint x="718" y="772" as="targetPoint"/>
                    </mxGeometry>
                </mxCell>
                <mxCell id="15" value="前端为主的MV*" style="text;html=1;strokeColor=default;fillColor=none;align=left;verticalAlign=middle;whiteSpace=wrap;rounded=0;" vertex="1" parent="2ExhwNMivMS8VfAEn1K8-1">
                    <mxGeometry x="318.5" y="721" width="93.5" height="27" as="geometry"/>
                </mxCell>
                <mxCell id="16" value="" style="ellipse;whiteSpace=wrap;html=1;aspect=fixed;" vertex="1" parent="2ExhwNMivMS8VfAEn1K8-1">
                    <mxGeometry x="456" y="764" width="18" height="18" as="geometry"/>
                </mxCell>
                <mxCell id="17" value="" style="endArrow=none;html=1;startArrow=none;" edge="1" parent="2ExhwNMivMS8VfAEn1K8-1" source="13" target="16">
                    <mxGeometry width="50" height="50" relative="1" as="geometry">
                        <mxPoint x="373.9999638872498" y="772.9745043515943" as="sourcePoint"/>
                        <mxPoint x="718" y="772" as="targetPoint"/>
                    </mxGeometry>
                </mxCell>
                <mxCell id="18" value="node带来的全栈" style="text;html=1;strokeColor=default;fillColor=none;align=left;verticalAlign=middle;whiteSpace=wrap;rounded=0;" vertex="1" parent="2ExhwNMivMS8VfAEn1K8-1">
                    <mxGeometry x="419" y="798" width="94.5" height="24" as="geometry"/>
                </mxCell>
                <mxCell id="19" value="2008" style="text;html=1;strokeColor=none;fillColor=none;align=center;verticalAlign=middle;whiteSpace=wrap;rounded=0;" vertex="1" parent="2ExhwNMivMS8VfAEn1K8-1">
                    <mxGeometry x="335" y="740" width="60" height="30" as="geometry"/>
                </mxCell>
                <mxCell id="20" value="2010" style="text;html=1;strokeColor=none;fillColor=none;align=center;verticalAlign=middle;whiteSpace=wrap;rounded=0;" vertex="1" parent="2ExhwNMivMS8VfAEn1K8-1">
                    <mxGeometry x="435" y="776" width="60" height="30" as="geometry"/>
                </mxCell>
                <mxCell id="21" value="" style="ellipse;whiteSpace=wrap;html=1;aspect=fixed;" vertex="1" parent="2ExhwNMivMS8VfAEn1K8-1">
                    <mxGeometry x="549" y="764" width="18" height="18" as="geometry"/>
                </mxCell>
                <mxCell id="22" value="" style="endArrow=none;html=1;startArrow=none;" edge="1" parent="2ExhwNMivMS8VfAEn1K8-1" source="16" target="21">
                    <mxGeometry width="50" height="50" relative="1" as="geometry">
                        <mxPoint x="473.99992969821756" y="772.964427155343" as="sourcePoint"/>
                        <mxPoint x="718" y="772" as="targetPoint"/>
                    </mxGeometry>
                </mxCell>
                <mxCell id="23" value="2018" style="text;html=1;strokeColor=none;fillColor=none;align=center;verticalAlign=middle;whiteSpace=wrap;rounded=0;" vertex="1" parent="2ExhwNMivMS8VfAEn1K8-1">
                    <mxGeometry x="529" y="740" width="60" height="30" as="geometry"/>
                </mxCell>
                <mxCell id="24" value="微信小程序云开发" style="text;html=1;strokeColor=default;fillColor=none;align=left;verticalAlign=middle;whiteSpace=wrap;rounded=0;" vertex="1" parent="2ExhwNMivMS8VfAEn1K8-1">
                    <mxGeometry x="506" y="724" width="111" height="22" as="geometry"/>
                </mxCell>
            </root>
        </mxGraphModel>
    </diagram>
</mxfile>